# Blender v2.93.0 OBJ File: ''
# www.blender.org
mtllib poster.mtl
o Cube.001
v 0.199767 2.795338 -1.855628
v 0.199767 -2.795338 1.855628
v 0.199767 -2.795338 -1.855629
v -0.199767 2.795338 1.855629
v -0.199767 -2.795338 1.855628
v 0.199767 2.795338 1.855629
v -0.199767 2.795338 -1.855628
v -0.199767 -2.795338 -1.855629
vt 0.777968 0.930335
vt 0.208723 0.077303
vt 0.777968 0.077303
vt 0.190719 0.751333
vt 0.007000 1.001333
vt 0.007000 0.751333
vt 0.190719 0.001333
vt 0.007000 0.251333
vt 0.007000 0.001333
vt 0.208178 0.077540
vt 0.778738 0.931956
vt 0.208178 0.931956
vt 0.190719 0.501333
vt 0.007000 0.501333
vt 0.190719 0.251333
vt 0.208723 0.930335
vt 0.190719 1.001333
vt 0.778738 0.077540
vn 1.0000 0.0000 0.0000
vn 0.0000 -0.0000 1.0000
vn 0.0000 1.0000 0.0000
vn -1.0000 0.0000 0.0000
vn 0.0000 -1.0000 -0.0000
vn 0.0000 0.0000 -1.0000
usemtl Material.001
s 1
f 1/1/1 2/2/1 3/3/1
f 2/4/2 4/5/2 5/6/2
f 6/7/3 7/8/3 4/9/3
f 8/10/4 4/11/4 7/12/4
f 3/13/5 5/6/5 8/14/5
f 1/15/6 8/14/6 7/8/6
f 1/1/1 6/16/1 2/2/1
f 2/4/2 6/17/2 4/5/2
f 6/7/3 1/15/3 7/8/3
f 8/10/4 5/18/4 4/11/4
f 3/13/5 2/4/5 5/6/5
f 1/15/6 3/13/6 8/14/6
