# Blender v2.93.0 OBJ File: ''
# www.blender.org
mtllib shelf1.mtl
o Box
v 159.341599 47.478226 50.539585
v 159.341599 60.887928 -50.539524
v 159.341599 60.887882 50.539597
v -159.341599 47.478271 -50.539539
v -159.341599 60.887882 50.539597
v -159.341599 60.887928 -50.539524
v -152.127747 60.887882 41.879681
v 152.127747 60.887928 -50.575581
v -152.127747 60.887928 -50.575581
v -143.523727 38.141960 -38.407581
v 143.523727 38.141922 38.407631
v -143.523727 38.141922 38.407631
v -159.341599 47.478226 50.539585
v 159.341599 47.478271 -50.539539
v 143.523727 38.141960 -38.407581
v -159.341599 67.776299 -50.539524
v -152.127747 67.776253 41.879681
v -152.127747 67.776299 -50.575581
v 159.341599 67.776253 50.539597
v -159.341599 67.776253 50.539597
v 159.341599 67.776299 -50.539524
v 152.127747 67.776253 41.879681
v 152.127747 60.887882 41.879681
v 152.127747 67.776299 -50.575581
vt 0.564337 0.000000
vt 1.000000 1.000000
vt 0.564337 1.000000
vt 0.564337 0.000000
vt 1.000000 1.000000
vt 0.564337 1.000000
vt 0.568263 0.000000
vt 1.000000 1.000000
vt 0.568263 1.000000
vt 0.567127 0.000000
vt 1.000000 1.000000
vt 0.567127 1.000000
vt 0.142951 0.008870
vt -0.001455 0.992268
vt -0.001455 0.008870
vt 0.564337 0.000000
vt 1.000000 1.000000
vt 0.564337 1.000000
vt 0.000000 0.000000
vt 0.000000 0.000000
vt 0.000000 0.000000
vt 0.000000 0.000000
vt 0.000000 0.000000
vt 0.000000 0.000000
vt 0.000000 0.000000
vt 0.000000 0.000000
vt 0.000000 0.000000
vt 0.000000 0.000000
vt 0.000000 0.000000
vt 0.000000 0.000000
vt 0.000000 0.000000
vt 0.000000 0.000000
vt 0.000000 0.000000
vt 0.000000 0.000000
vt 0.000000 0.000000
vt 0.000000 0.000000
vt 0.000000 0.000000
vt 0.000000 0.000000
vt 0.000000 0.000000
vt 0.000000 0.000000
vt 0.000000 0.000000
vt 0.000000 0.000000
vt 1.000000 0.000000
vt 1.000000 0.000000
vt 1.000000 0.000000
vt 1.000000 0.000000
vt 0.142951 0.992269
vt 1.000000 0.000000
vn 1.0000 0.0000 0.0000
vn -1.0000 0.0000 0.0000
vn 0.0000 1.0000 0.0000
vn 0.0000 1.0000 0.0001
vn -0.0000 1.0000 -0.0031
vn 0.0745 -0.9109 0.4058
vn -0.2268 -0.9193 -0.3216
vn 0.4050 -0.9031 -0.1426
vn 0.0000 -0.0000 1.0000
vn 0.0000 0.0000 -1.0000
vn 0.4768 -0.7259 0.4957
vn 0.4812 -0.7201 -0.4999
vn -0.4812 -0.7201 0.4999
vn -0.4768 -0.7259 -0.4957
vn 0.7699 -0.6360 0.0523
vn 0.0001 1.0000 -0.0010
vn 0.0000 1.0000 0.0003
vn -0.0050 0.0000 -1.0000
vn 0.0050 0.0000 -1.0000
usemtl 86878e
s 1
f 1/1/1 2/2/1 3/3/1
f 4/4/2 5/5/2 6/6/2
f 7/7/3 8/8/4 9/9/5
f 10/10/6 11/11/7 12/12/8
f 13/13/9 3/14/9 5/15/9
f 14/16/10 6/17/10 2/18/10
f 4/19/11 12/20/8 13/21/12
f 14/22/13 10/23/6 4/19/11
f 1/24/14 15/25/15 14/22/13
f 13/21/12 11/26/7 1/24/14
f 16/27/3 17/28/3 18/29/3
f 19/30/3 17/28/3 20/31/3
f 21/32/3 22/33/3 19/30/3
f 6/34/16 8/35/4 2/36/17
f 5/37/2 16/27/2 6/34/2
f 9/38/1 17/28/1 7/39/1
f 6/34/18 18/29/18 9/38/18
f 3/40/9 20/31/9 5/37/9
f 7/39/10 22/33/10 23/41/10
f 2/36/1 19/30/1 3/40/1
f 8/35/19 21/32/19 2/36/19
f 23/41/2 24/42/2 8/35/2
f 1/1/1 14/43/1 2/2/1
f 4/4/2 13/44/2 5/5/2
f 7/7/3 23/45/3 8/8/4
f 10/10/6 15/46/15 11/11/7
f 13/13/9 1/47/9 3/14/9
f 14/16/10 4/48/10 6/17/10
f 4/19/11 10/23/6 12/20/8
f 14/22/13 15/25/15 10/23/6
f 1/24/14 11/26/7 15/25/15
f 13/21/12 12/20/8 11/26/7
f 16/27/3 20/31/3 17/28/3
f 19/30/3 22/33/3 17/28/3
f 21/32/3 24/42/3 22/33/3
f 6/34/16 9/38/5 8/35/4
f 5/37/2 20/31/2 16/27/2
f 9/38/1 18/29/1 17/28/1
f 6/34/18 16/27/18 18/29/18
f 3/40/9 19/30/9 20/31/9
f 7/39/10 17/28/10 22/33/10
f 2/36/1 21/32/1 19/30/1
f 8/35/19 24/42/19 21/32/19
f 23/41/2 22/33/2 24/42/2
